<svg id="Capa_1" enable-background="new 0 0 512 512" height="512" viewBox="0 0 512 512" width="512" xmlns="http://www.w3.org/2000/svg"><g><g><path d="m231.569 196.573 9.083-8.425c3.036-2.817 3.215-7.562.398-10.599-2.816-3.036-7.561-3.215-10.599-.398l-9.083 8.425c-3.036 2.817-3.215 7.562-.398 10.599 1.478 1.593 3.486 2.399 5.5 2.399 1.825 0 3.655-.662 5.099-2.001z"/></g><g><path d="m78.233 205.111c-17.749 16.039-28.189 38.028-29.389 61.897-1.2 23.879 6.98 46.798 23.039 64.547 17.669 19.509 42.048 29.419 66.517 29.419 21.439 0 42.948-7.62 60.057-23.079 17.759-16.049 28.199-38.038 29.399-61.927.08-1.52.11-3.04.11-4.56 0-22.219-8.13-43.358-23.159-59.957-33.138-36.579-89.916-39.429-126.574-6.34zm134.634 70.107c-.99 19.879-9.68 38.188-24.469 51.548-30.509 27.569-77.787 25.199-105.395-5.28-13.369-14.769-20.179-33.849-19.179-53.718 1-19.879 9.69-38.178 24.459-51.528 14.259-12.869 32.169-19.209 50.028-19.209 10.19 0 20.349 2.07 29.819 6.16 9.46 4.09 18.209 10.21 25.559 18.329 13.368 14.759 20.178 33.828 19.178 53.698z"/></g><g><path d="m508.884 283.327c-9.7-45.278-40.868-82.107-83.746-99.286l-6.32-29.419c-3.14-14.629-17.629-24.009-32.319-20.899l-7.869 1.684-9.136-41.56c-4.859-22.164-26.852-36.245-49.025-31.388-10.714 2.343-19.891 8.742-25.839 18.018-.918 1.432-1.73 2.909-2.458 4.416-7.267 1.361-14.256 4.682-20.111 10.013-.032.029-.064.059-.096.088l-33.131 31.237-6.438-7.108c-4.85-5.37-11.53-8.53-18.809-8.9-7.28-.37-14.249 2.1-19.609 6.96l-22.359 20.169c-21.409-5.25-43.898-5.37-65.307-.31-4.03.96-6.53 5-5.58 9.03.96 4.03 5 6.52 9.03 5.57 20.309-4.8 41.698-4.38 61.867 1.22 2.47.69 5.12.06 7.03-1.66l25.369-22.889c2.4-2.17 5.54-3.28 8.8-3.11 3.28.16 6.28 1.58 8.45 3.98l45.848 50.628c-.13 2.38.06 4.78.57 7.16l6.29 29.419c-32.049 33.219-45.378 79.567-35.668 124.845.14.64.28 1.27.42 1.91-5.09 7.09-10.98 13.699-17.629 19.709-50.458 45.558-128.614 41.638-174.242-8.74-22.089-24.389-33.349-55.928-31.699-88.776 1.64-32.869 16.009-63.137 40.448-85.206 7.07-6.38 14.799-11.9 22.979-16.409 3.62-2.01 4.94-6.57 2.94-10.189-2-3.63-6.56-4.95-10.19-2.95-9.18 5.07-17.859 11.26-25.779 18.409-27.421 24.768-43.54 58.717-45.39 95.595-1.84 36.858 10.79 72.227 35.578 99.596 27.259 30.109 64.897 45.418 102.666 45.418 33.099 0 66.307-11.759 92.736-35.618 4.61-4.17 8.9-8.6 12.859-13.249 12.249 32.849 36.478 59.787 68.587 75.577 3.72 1.83 8.22.3 10.04-3.42 1.83-3.72.3-8.21-3.42-10.04-31.669-15.569-54.738-43.308-64.267-76.877-.75-2.6-1.41-5.23-1.98-7.89-1.1-5.15-1.87-10.32-2.31-15.469-1.83-21.269 1.89-42.348 10.62-61.397 6.23-13.609 15.009-26.189 26.129-37.058 1.806-1.772 2.65-4.459 2.09-6.94l-7.14-33.398c-1.399-6.467 2.91-13.091 9.36-14.479l82.424-17.638c.124-.021.248-.035.373-.062.101-.022.196-.055.295-.081l14.804-3.168c6.6-1.39 13.129 2.81 14.539 9.38l7.17 33.388c.54 2.52 2.33 4.58 4.75 5.47 40.018 14.679 69.227 48.268 78.137 89.836 6.9 32.179.85 65.107-17.049 92.736-17.899 27.619-45.488 46.628-77.707 53.518-16.609 3.55-33.388 3.7-49.858.43-4.07-.81-8.01 1.83-8.82 5.9-.81 4.06 1.83 8.01 5.9 8.81 8.86 1.76 17.799 2.64 26.749 2.64 9.73 0 19.479-1.04 29.169-3.11 36.128-7.73 67.087-29.049 87.156-60.037 20.078-30.992 26.868-67.93 19.128-104.029zm-185.207-206.216c14.1-3.086 28.079 5.861 31.168 19.952l9.119 41.482-27.709 5.928c2.784-5.287 4.393-11.176 4.671-17.341.497-11.005-3.307-21.512-10.699-29.575-5.698-6.241-12.897-10.318-20.555-12.19 3.659-4.171 8.514-7.056 14.005-8.256zm-20.379 22.294c5.894.783 11.552 3.556 15.861 8.277 4.689 5.114 7.097 11.782 6.781 18.775-.316 7.006-3.323 13.444-8.468 18.129-.038.035-.076.07-.113.105l-4.688 4.449-8.974-40.885c-.646-2.949-.772-5.933-.399-8.85zm-14.714 55.268c-6.13 1.32-11.51 4.64-15.399 9.48l-24.278-26.801 33.298-31.395c1.815-1.645 3.803-2.982 5.895-4.026-.055 3.17.251 6.366.946 9.537l9.037 41.173z"/></g><g><path d="m298.373 263.648c-13.009 20.079-17.419 44.008-12.399 67.397 9.01 41.968 46.278 70.767 87.626 70.767 6.2 0 12.489-.65 18.789-1.99 23.409-5.01 43.458-18.829 56.458-38.908 12.999-20.079 17.399-44.018 12.379-67.397-9.01-41.968-46.278-70.777-87.606-70.777-6.2 0-12.489.65-18.789 2-23.399 5.01-43.458 18.829-56.458 38.908zm59.598-24.239c40.228-8.609 79.967 17.079 88.586 57.258 4.18 19.459.52 39.378-10.3 56.098-10.83 16.709-27.519 28.219-47.008 32.388-40.238 8.61-79.987-17.079-88.606-57.257-4.18-19.459-.51-39.378 10.31-56.098 10.839-16.709 27.528-28.219 47.018-32.389z"/></g><g><path d="m347.963 203.35c.547 0 1.103-.06 1.66-.186 4.04-.913 6.575-4.928 5.662-8.968l-2.728-12.076c-.912-4.039-4.923-6.577-8.968-5.662-4.04.913-6.575 4.928-5.662 8.968l2.728 12.076c.786 3.483 3.88 5.848 7.308 5.848z"/></g></g></svg>